<svg xmlns="http://www.w3.org/2000/svg" version="1.1" xmlns:xlink="http://www.w3.org/1999/xlink" width="512" height="512" x="0" y="0" viewBox="0 0 64 64" style="enable-background:new 0 0 512 512" xml:space="preserve" class=""><g><path d="M55 60h-4V3a1 1 0 0 0-1-1H14c-.033 0-.06.016-.092.019a.95.95 0 0 0-.156.031.966.966 0 0 0-.26.108c-.026.016-.057.017-.082.035-.031.023-.056.051-.083.077l-.05.046a.99.99 0 0 0-.184.274c-.01.02-.015.039-.022.059A.992.992 0 0 0 13 3v57H9a1 1 0 0 0 0 2h5c.102 0 .204-.016.303-.047l22-7A1 1 0 0 0 37 54V10a1 1 0 0 0-.697-.953L20.442 4H49v57a1 1 0 0 0 1 1h5a1 1 0 0 0 0-2zm-20-6.731-20 6.363V4.368l20 6.363zM31 35v-6a1 1 0 0 1 2 0v6a1 1 0 0 1-2 0z" fill="#4db960" opacity="1" data-original="#000000"></path></g></svg>