<svg xmlns="http://www.w3.org/2000/svg" version="1.1" xmlns:xlink="http://www.w3.org/1999/xlink" width="512" height="512" x="0" y="0" viewBox="0 0 64 64" style="enable-background:new 0 0 512 512" xml:space="preserve"><g><path d="M57 58H13a1 1 0 0 1-1-1v-4.24a1 1 0 1 1 2 0V56h42V13.414L44.586 2H14v39.24a1 1 0 1 1-2 0V1a1 1 0 0 1 1-1h32c.265 0 .52.105.707.293l12 12A1 1 0 0 1 58 13v44a1 1 0 0 1-1 1z" fill="#4db960" opacity="1" data-original="#000000"></path><path d="M44.903 14a1 1 0 0 1-1-1V2a1 1 0 0 1 2 0v11a1 1 0 0 1-1 1z" fill="#4db960" opacity="1" data-original="#000000"></path><path d="M57 14H45a1 1 0 0 1 0-2h12a1 1 0 0 1 0 2z" fill="#4db960" opacity="1" data-original="#000000"></path><path d="M63 64H19a1 1 0 0 1-1-1v-6a1 1 0 1 1 2 0v5h42V8H51a1 1 0 0 1 0-2h12a1 1 0 0 1 1 1v56a1 1 0 0 1-1 1z" fill="#4db960" opacity="1" data-original="#000000"></path><path d="M31 44c-8.271 0-15-6.729-15-15s6.729-15 15-15 15 6.729 15 15-6.729 15-15 15zm0-28c-7.168 0-13 5.832-13 13s5.832 13 13 13 13-5.832 13-13-5.832-13-13-13z" fill="#4db960" opacity="1" data-original="#000000"></path><path d="M31 40c-6.065 0-11-4.935-11-11s4.935-11 11-11 11 4.935 11 11-4.935 11-11 11zm0-20c-4.962 0-9 4.038-9 9s4.038 9 9 9 9-4.037 9-9-4.038-9-9-9zM6.756 60a.997.997 0 0 1-.707-.293L.293 53.952a.997.997 0 0 1 0-1.414l14.244-14.245a.999.999 0 0 1 1.414 0l5.756 5.755a.997.997 0 0 1 0 1.414L7.463 59.707a.997.997 0 0 1-.707.293zm-4.342-6.755 4.342 4.341 12.83-12.831-4.342-4.341z" fill="#4db960" opacity="1" data-original="#000000"></path><path d="M19.64 44.4a.999.999 0 0 1-.707-1.707l3.1-3.101a.999.999 0 1 1 1.414 1.414l-3.1 3.101a.997.997 0 0 1-.707.293zM16.61 41.37a.999.999 0 0 1-.707-1.707l3.1-3.101a.999.999 0 1 1 1.414 1.414l-3.1 3.101a.997.997 0 0 1-.707.293zM51 19H40a1 1 0 0 1 0-2h11a1 1 0 0 1 0 2zM35 26h-7a1 1 0 0 1 0-2h7a1 1 0 0 1 0 2zM51 24h-7a1 1 0 0 1 0-2h7a1 1 0 0 1 0 2zM51 29h-6a1 1 0 0 1 0-2h6a1 1 0 0 1 0 2zM51 41H40a1 1 0 1 1 0-2h11a1 1 0 1 1 0 2zM37 49H25a1 1 0 1 1 0-2h12a1 1 0 1 1 0 2zM50 49h-9a1 1 0 1 1 0-2h9a1 1 0 1 1 0 2zM38 11H21a1 1 0 0 1 0-2h17a1 1 0 0 1 0 2zM51 34h-6a1 1 0 1 1 0-2h6a1 1 0 0 1 0 2zM36 30H26a1 1 0 0 1 0-2h10a1 1 0 0 1 0 2z" fill="#4db960" opacity="1" data-original="#000000"></path></g></svg>